# xmcd CD database file
#
# Track frame offsets:
#	150
#	19252
#	44815
#	70835
#	100735
#	125717
#	159272
#	188880
#
# Disc length: 3041 seconds
#
# Revision: 0
# Processed by: cddbd v1.5.1PL0 Copyright (c) Steve Scherf et al.
# Submitted via: CDex 1.51
#
DISCID=6c0bdf08
DTITLE=クリヤマコト - X-Bar Trio
DYEAR=1992
DGENRE=Jazz
TTITLE0=Suevival Instinct
TTITLE1=In And Outs
TTITLE2=Harvest Road
TTITLE3=Justice
TTITLE4=Love And Dedications
TTITLE5=Here Comes The Bad Day
TTITLE6=Moon Dog
TTITLE7=X-Bar Fantasy
EXTD=YEAR: 1992
EXTT0=
EXTT1=
EXTT2=
EXTT3=
EXTT4=
EXTT5=
EXTT6=
EXTT7=
PLAYORDER=
